# xmcd CD database file
#
# Track frame offsets:
#	150
#	20645
#	37832
#	53805
#	71075
#	86276
#	106112
#	122837
#	139243
#	159297
#
# Disc length: 2364 seconds
#
# Revision: 1
# Processed by: cddbd v1.5.1PL0 Copyright (c) Steve Scherf et al.
# Submitted via: jetAudio 5
#
DISCID=7a093a0a
DTITLE=Buddy Jewell - Buddy Jewell
DYEAR=1900
DGENRE=
TTITLE0=I Wanna Thank Everyone
TTITLE1=Help Pour Out the Rain (Lacey's Song)
TTITLE2=Sweet Southern Comfort
TTITLE3=Abilene on Her Mind
TTITLE4=One in a Row
TTITLE5=O'Reilly Luck
TTITLE6=Why We Said Goodbye
TTITLE7=One Step at a Time
TTITLE8=I Can Get By
TTITLE9=You Know How Women Are
EXTD=
EXTT0=
EXTT1=
EXTT2=
EXTT3=
EXTT4=
EXTT5=
EXTT6=
EXTT7=
EXTT8=
EXTT9=
PLAYORDER=
